<svg xmlns="http://www.w3.org/2000/svg" data-name="Layer 1" viewBox="0 0 512 512"><path fill="#fb8500" d="M256.015 503.686C392.593 503.686 504 392.42 504 255.985S392.593 8.314 256.015 8.314 8 119.58 8 255.985s111.407 247.701 248.015 247.701"/><path fill="#ffb703" d="M256.015 8.314C119.407 8.314 8 119.58 8 255.985s111.407 247.701 248.015 247.701S504 392.42 504 255.985 392.592 8.314 256.015 8.314m0 436.763c-104.288 0-189.333-84.937-189.333-189.093S151.727 66.891 256.015 66.891s189.333 84.967 189.333 189.093-85.075 189.093-189.333 189.093"/><path fill="#fcd227" d="M380.248 214.862a6 6 0 0 0-4.688-4.06l-77.547-13.362-36.69-69.533a6.001 6.001 0 0 0-10.614 0l-36.691 69.533-77.547 13.362a6 6 0 0 0-3.28 10.099l54.863 56.342-11.226 77.787a5.998 5.998 0 0 0 8.586 6.24l70.601-34.725 70.6 34.725a6 6 0 0 0 8.587-6.241l-11.226-77.787 54.863-56.342a6 6 0 0 0 1.408-6.039zM80.793 80.985l41.454 41.401c34.297-34.254 81.627-55.494 133.769-55.494V8.314c-68.297 0-130.295 27.811-175.222 72.671zm350.444 350-41.454-41.401c-34.301 34.257-81.637 55.494-133.769 55.494v58.608c68.295 0 130.297-27.822 175.222-72.7zm-.013-349.987-41.446 41.394c34.301 34.257 55.569 81.53 55.569 133.593H504c0-68.202-27.852-130.12-72.776-174.987m-350.445 350 41.461-41.409c-34.297-34.254-55.559-81.527-55.559-133.605H8c0 68.217 27.852 130.142 72.779 175.013z"/></svg>