<?xml version="1.0" encoding="UTF-8" standalone="no"?>
<!-- Created with Inkscape (http://www.inkscape.org/) -->

<svg
   width="882.9093"
   height="98.214264"
   viewBox="0 0 882.9093 98.214264"
   version="1.1"
   id="svg1"
   xml:space="preserve"
   xmlns="http://www.w3.org/2000/svg"
   xmlns:svg="http://www.w3.org/2000/svg"><defs
     id="defs1" /><g
     id="layer1"
     transform="translate(-574.42773,-416.09348)"><g
       id="g1"
       transform="matrix(0.19826368,0,0,0.19826368,572.84163,414.44512)"><path
         d="M 256.015,503.686 C 392.593,503.686 504,392.42 504,255.985 504,119.55 392.593,8.314 256.015,8.314 119.437,8.314 8,119.58 8,255.985 8,392.39 119.407,503.686 256.015,503.686 Z"
         fill="#fb8500"
         id="path1" /><path
         d="M 256.015,8.314 C 119.407,8.314 8,119.58 8,255.985 8,392.39 119.407,503.686 256.015,503.686 392.623,503.686 504,392.42 504,255.985 504,119.55 392.592,8.314 256.015,8.314 Z m 0,436.763 c -104.288,0 -189.333,-84.937 -189.333,-189.093 0,-104.156 85.045,-189.093 189.333,-189.093 104.288,0 189.333,84.967 189.333,189.093 0,104.126 -85.075,189.093 -189.333,189.093 z"
         fill="#ffb703"
         id="path2" /><g
         fill="#fcd227"
         id="g8"><path
           d="m 380.248,214.862 c -0.688,-2.118 -2.493,-3.681 -4.688,-4.06 l -77.547,-13.362 -36.69,-69.533 c -1.039,-1.968 -3.081,-3.2 -5.307,-3.2 -2.226,0 -4.268,1.232 -5.307,3.2 l -36.691,69.533 -77.547,13.362 c -2.195,0.378 -4,1.941 -4.688,4.06 -0.688,2.118 -0.146,4.443 1.408,6.039 l 54.863,56.342 -11.226,77.787 c -0.318,2.203 0.61,4.402 2.411,5.71 1.044,0.759 2.282,1.146 3.528,1.146 0.902,0 1.808,-0.203 2.647,-0.616 l 70.601,-34.725 70.6,34.725 c 2,0.982 4.376,0.778 6.176,-0.531 1.801,-1.309 2.729,-3.507 2.411,-5.71 L 323.976,277.242 378.839,220.9 c 1.554,-1.596 2.096,-3.921 1.408,-6.039 z"
           id="path3" /><g
           id="g7"><path
             d="m 80.793,80.985 41.454,41.401 C 156.544,88.132 203.874,66.892 256.016,66.892 V 8.314 c -68.297,0 -130.295,27.811 -175.222,72.671 z"
             id="path4" /><path
             d="m 431.237,430.985 -41.454,-41.401 c -34.301,34.257 -81.637,55.494 -133.769,55.494 v 58.608 c 68.295,0 130.297,-27.822 175.222,-72.7 z"
             id="path5" /><path
             d="m 431.224,80.998 -41.446,41.394 c 34.301,34.257 55.569,81.53 55.569,133.593 H 504 c 0,-68.202 -27.852,-130.12 -72.776,-174.987 z"
             id="path6" /><path
             d="M 80.779,430.998 122.24,389.589 C 87.943,355.335 66.681,308.062 66.681,255.984 H 8 c 0,68.217 27.852,130.142 72.779,175.013 z"
             id="path7" /></g></g></g><text
       xml:space="preserve"
       style="font-style:normal;font-variant:normal;font-weight:bold;font-stretch:normal;font-size:96px;font-family:'CaskaydiaCove Nerd Font';-inkscape-font-specification:'CaskaydiaCove Nerd Font Bold';fill:#000000"
       x="701.4104"
       y="497.2023"
       id="text1"><tspan
         id="tspan1"
         x="701.4104"
         y="497.2023"
         style="font-style:normal;font-variant:normal;font-weight:bold;font-stretch:normal;font-family:'Victor Mono';-inkscape-font-specification:'Victor Mono Bold'">Adventure<tspan
   style="font-size:42.6667px"
   id="tspan2"> </tspan>Money</tspan></text></g></svg>
