<svg id="Layer_1" viewBox="0 0 512 512" xmlns="http://www.w3.org/2000/svg" data-name="Layer 1"><path d="m256.015 503.686c136.578 0 247.985-111.266 247.985-247.701s-111.407-247.671-247.985-247.671-248.015 111.266-248.015 247.671 111.407 247.701 248.015 247.701z" fill="#fb8500"/><path d="m256.015 8.314c-136.608 0-248.015 111.266-248.015 247.671s111.407 247.701 248.015 247.701 247.985-111.266 247.985-247.701-111.408-247.671-247.985-247.671zm0 436.763c-104.288 0-189.333-84.937-189.333-189.093s85.045-189.093 189.333-189.093 189.333 84.967 189.333 189.093-85.075 189.093-189.333 189.093z" fill="#ffb703"/><g fill="#fcd227"><path d="m380.248 214.862c-.688-2.118-2.493-3.681-4.688-4.06l-77.547-13.362-36.69-69.533c-1.039-1.968-3.081-3.2-5.307-3.2s-4.268 1.232-5.307 3.2l-36.691 69.533-77.547 13.362c-2.195.378-4 1.941-4.688 4.06-.688 2.118-.146 4.443 1.408 6.039l54.863 56.342-11.226 77.787c-.318 2.203.61 4.402 2.411 5.71 1.044.759 2.282 1.146 3.528 1.146.902 0 1.808-.203 2.647-.616l70.601-34.725 70.6 34.725c2 .982 4.376.778 6.176-.531 1.801-1.309 2.729-3.507 2.411-5.71l-11.226-77.787 54.863-56.342c1.554-1.596 2.096-3.921 1.408-6.039z"/><g><path d="m80.793 80.985 41.454 41.401c34.297-34.254 81.627-55.494 133.769-55.494v-58.578c-68.297 0-130.295 27.811-175.222 72.671z"/><path d="m431.237 430.985-41.454-41.401c-34.301 34.257-81.637 55.494-133.769 55.494v58.608c68.295 0 130.297-27.822 175.222-72.7z"/><path d="m431.224 80.998-41.446 41.394c34.301 34.257 55.569 81.53 55.569 133.593h58.653c0-68.202-27.852-130.12-72.776-174.987z"/><path d="m80.779 430.998 41.461-41.409c-34.297-34.254-55.559-81.527-55.559-133.605h-58.681c0 68.217 27.852 130.142 72.779 175.013z"/></g></g></svg>