<?xml version="1.0" encoding="UTF-8" standalone="no"?>
<!-- Created with Inkscape (http://www.inkscape.org/) -->

<svg
   width="882.9093"
   height="98.214264"
   viewBox="0 0 882.9093 98.214264"
   version="1.1"
   id="svg1"
   xml:space="preserve"
   xmlns="http://www.w3.org/2000/svg"
   xmlns:svg="http://www.w3.org/2000/svg"><defs
     id="defs1" /><g
     id="layer1"
     transform="translate(-574.42773,-416.09348)"><g
       id="g1"
       transform="matrix(0.19826368,0,0,0.19826368,572.84163,414.44512)"><path
         d="M 256.015,503.686 C 392.593,503.686 504,392.42 504,255.985 504,119.55 392.593,8.314 256.015,8.314 119.437,8.314 8,119.58 8,255.985 8,392.39 119.407,503.686 256.015,503.686 Z"
         fill="#fb8500"
         id="path1" /><path
         d="M 256.015,8.314 C 119.407,8.314 8,119.58 8,255.985 8,392.39 119.407,503.686 256.015,503.686 392.623,503.686 504,392.42 504,255.985 504,119.55 392.592,8.314 256.015,8.314 Z m 0,436.763 c -104.288,0 -189.333,-84.937 -189.333,-189.093 0,-104.156 85.045,-189.093 189.333,-189.093 104.288,0 189.333,84.967 189.333,189.093 0,104.126 -85.075,189.093 -189.333,189.093 z"
         fill="#ffb703"
         id="path2" /><g
         fill="#fcd227"
         id="g8"><path
           d="m 380.248,214.862 c -0.688,-2.118 -2.493,-3.681 -4.688,-4.06 l -77.547,-13.362 -36.69,-69.533 c -1.039,-1.968 -3.081,-3.2 -5.307,-3.2 -2.226,0 -4.268,1.232 -5.307,3.2 l -36.691,69.533 -77.547,13.362 c -2.195,0.378 -4,1.941 -4.688,4.06 -0.688,2.118 -0.146,4.443 1.408,6.039 l 54.863,56.342 -11.226,77.787 c -0.318,2.203 0.61,4.402 2.411,5.71 1.044,0.759 2.282,1.146 3.528,1.146 0.902,0 1.808,-0.203 2.647,-0.616 l 70.601,-34.725 70.6,34.725 c 2,0.982 4.376,0.778 6.176,-0.531 1.801,-1.309 2.729,-3.507 2.411,-5.71 L 323.976,277.242 378.839,220.9 c 1.554,-1.596 2.096,-3.921 1.408,-6.039 z"
           id="path3" /><g
           id="g7"><path
             d="m 80.793,80.985 41.454,41.401 C 156.544,88.132 203.874,66.892 256.016,66.892 V 8.314 c -68.297,0 -130.295,27.811 -175.222,72.671 z"
             id="path4" /><path
             d="m 431.237,430.985 -41.454,-41.401 c -34.301,34.257 -81.637,55.494 -133.769,55.494 v 58.608 c 68.295,0 130.297,-27.822 175.222,-72.7 z"
             id="path5" /><path
             d="m 431.224,80.998 -41.446,41.394 c 34.301,34.257 55.569,81.53 55.569,133.593 H 504 c 0,-68.202 -27.852,-130.12 -72.776,-174.987 z"
             id="path6" /><path
             d="M 80.779,430.998 122.24,389.589 C 87.943,355.335 66.681,308.062 66.681,255.984 H 8 c 0,68.217 27.852,130.142 72.779,175.013 z"
             id="path7" /></g></g></g><path
       style="font-weight:bold;font-size:96px;font-family:'Victor Mono';-inkscape-font-specification:'Victor Mono Bold'"
       d="m 752.37767,497.2023 -19.46182,-69.81818 h -10.56 l -19.54909,69.81818 h 10.38546 l 4.45091,-16.23273 h 19.89818 l 4.45091,16.23273 z m -24.78545,-52.62545 7.41818,27.14181 h -14.83636 z m 51.92722,53.84727 c 4.8,0 8.55273,-0.69818 11.69455,-1.83273 v 0.61091 h 10.03636 v -69.81818 h -10.03636 v 16.75636 c -3.22909,-1.22182 -6.98182,-2.09454 -11.69455,-2.09454 -16.14545,0 -21.55636,8.20363 -21.55636,28.27636 0,19.98546 5.41091,28.10182 21.55636,28.10182 z m 0,-9.25091 c -8.90182,0 -11.52,-4.36364 -11.52,-18.85091 0,-14.57454 2.61818,-19.02545 11.52,-19.02545 8.46546,0 11.69455,4.01454 11.69455,12.21818 v 20.59636 c 0,2.96727 -3.22909,5.06182 -11.69455,5.06182 z m 57.25086,8.02909 19.54909,-53.93454 h -10.29818 l -13.78909,39.0109 -13.52727,-39.0109 h -10.38546 l 19.37455,53.93454 z m 48.1745,-8.02909 c -9.07637,0 -12.48,-4.01455 -12.91637,-16.23273 h 35.52 c 0,-23.56363 -5.41091,-30.89454 -22.60363,-30.89454 -17.45455,0 -23.04,6.80727 -23.04,28.18909 0,21.38182 5.58545,28.18909 23.04,28.18909 10.38545,0 15.70909,-2.88 21.73091,-12.04364 l -8.0291,-5.32363 c -4.36363,6.10909 -7.76727,8.11636 -13.70181,8.11636 z m 0,-37.87636 c 9.33818,0 12.30545,2.96727 12.30545,12.39272 h -25.04727 c 0.87273,-9.33818 4.36363,-12.39272 12.74182,-12.39272 z m 41.71631,45.90545 v -33.51273 c 0,-10.03636 1.74545,-12.39272 12.82909,-12.39272 6.80727,0 8.90182,3.14181 8.90182,13.35272 v 32.55273 h 10.12364 v -32.55273 c 0,-17.28 -4.53819,-22.60363 -19.02546,-22.60363 -5.58545,0 -9.77454,1.13454 -12.82909,2.53091 v -1.30909 h -10.03636 v 53.93454 z m 68.42177,1.22182 c 10.82182,0 15.09822,-3.05455 17.71632,-11.95636 l -9.4254,-3.2291 c -1.4836,4.97455 -1.92,5.93455 -8.29092,5.93455 -5.67273,0 -7.59273,-2.61818 -7.59273,-12.39273 v -25.30909 h 18.06545 v -9.25091 h -18.06545 v -14.83636 h -10.03636 v 14.83636 h -10.82182 v 9.25091 h 10.82182 v 25.30909 c 0,15.44728 4.97454,21.64364 17.62909,21.64364 z m 45.20722,0 c 5.5855,0 9.7745,-0.69818 12.8291,-2.09455 v 0.87273 h 10.1236 v -53.93454 h -10.1236 v 35.34545 c 0,8.46545 -2.3564,10.56 -12.8291,10.56 -7.0691,0 -8.9018,-2.35636 -8.9018,-12.91636 v -32.98909 h -10.0364 v 32.98909 c 0,16.32 4.8873,22.16727 18.9382,22.16727 z m 45.8181,-1.22182 v -27.66545 c 0,-11.08364 2.9673,-18.24 12.5673,-18.24 5.6727,0 7.0691,1.65818 9.4255,8.90181 l 8.9891,-4.10181 c -3.84,-10.38546 -8.4655,-14.05091 -18.4146,-14.05091 -5.6727,0 -10.2982,3.22909 -12.5673,5.67272 v -4.4509 h -10.0363 v 53.93454 z m 60.6545,-8.02909 c -9.0763,0 -12.48,-4.01455 -12.9163,-16.23273 h 35.52 c 0,-23.56363 -5.4109,-30.89454 -22.6037,-30.89454 -17.4545,0 -23.04,6.80727 -23.04,28.18909 0,21.38182 5.5855,28.18909 23.04,28.18909 10.3855,0 15.7091,-2.88 21.7309,-12.04364 l -8.0291,-5.32363 c -4.3636,6.10909 -7.7672,8.11636 -13.7018,8.11636 z m 0,-37.87636 c 9.3382,0 12.3055,2.96727 12.3055,12.39272 h -25.0473 c 0.8727,-9.33818 4.3636,-12.39272 12.7418,-12.39272 z m 61.6727,45.90545 0.7855,-43.81091 8.7272,23.56364 h 8.3782 l 8.7273,-23.56364 0.8727,43.81091 h 10.0364 l -1.2218,-69.81818 h -9.3382 l -13.2655,32.72727 -13.2654,-32.72727 h -9.2509 l -1.3091,69.81818 z m 66.0654,1.22182 c 16.1454,0 21.6436,-8.20364 21.6436,-28.18909 0,-19.98546 -5.4982,-28.18909 -21.6436,-28.18909 -16.1455,0 -21.5564,8.20363 -21.5564,28.18909 0,19.98545 5.4109,28.18909 21.5564,28.18909 z m 0,-9.25091 c -8.9018,0 -11.52,-4.36364 -11.52,-18.93818 0,-14.57455 2.6182,-18.93818 11.52,-18.93818 8.9018,0 11.6073,4.36363 11.6073,18.93818 0,14.57454 -2.7055,18.93818 -11.6073,18.93818 z m 41.9781,8.02909 v -33.51273 c 0,-10.03636 1.7455,-12.39272 12.8291,-12.39272 6.8073,0 8.9018,3.14181 8.9018,13.35272 v 32.55273 h 10.1237 v -32.55273 c 0,-17.28 -4.5382,-22.60363 -19.0255,-22.60363 -5.5854,0 -9.7745,1.13454 -12.8291,2.53091 v -1.30909 h -10.0363 v 53.93454 z m 63.0109,-8.02909 c -9.0764,0 -12.48,-4.01455 -12.9164,-16.23273 h 35.52 c 0,-23.56363 -5.4109,-30.89454 -22.6036,-30.89454 -17.4546,0 -23.04,6.80727 -23.04,28.18909 0,21.38182 5.5854,28.18909 23.04,28.18909 10.3854,0 15.7091,-2.88 21.7309,-12.04364 l -8.0291,-5.32363 c -4.3636,6.10909 -7.7673,8.11636 -13.7018,8.11636 z m 0,-37.87636 c 9.3382,0 12.3054,2.96727 12.3054,12.39272 h -25.0472 c 0.8727,-9.33818 4.3636,-12.39272 12.7418,-12.39272 z m 37.6145,63.01091 c 11.4327,0 16.4945,-4.88728 21.4691,-18.76364 l 18.7636,-52.27636 h -10.56 l -13.0909,38.4 -12.9164,-38.4 h -10.4727 l 18.0655,51.57818 c -2.7928,8.20363 -5.2364,10.21091 -11.2582,10.21091 -2.1818,0 -3.1418,-0.52364 -7.3309,-3.05455 l -4.0146,8.46546 c 3.84,2.79272 6.6327,3.84 11.3455,3.84 z"
       id="text1"
       aria-label="Adventure Money" /></g></svg>
